# xmcd
#
# Track frame offsets:
#	150
#	15789
#	31586
#	49074
#	64141
#	81943
#	101106
#	115734
#	129427
#	149015
#	166341
#	181008
#	198479
#
# Disc length: 2865 seconds
#
# Revision: 1
# Processed by: cddbd v1.5PL3 Copyright (c) Steve Scherf et al.
# Submitted via: audiograbber 1.83.01
#
DISCID=a50b2f0d
DTITLE=Melanie Thornton - Ready to fly
DYEAR=2001
DGENRE=Pop
TTITLE0=Love how you love me
TTITLE1=No tears
TTITLE2=Heart beat
TTITLE3=Oooh oooh
TTITLE4=Back on my feet again
TTITLE5=I wish it was love
TTITLE6=Intoxicated
TTITLE7=Walk on by
TTITLE8=Memories
TTITLE9=It's alright
TTITLE10=Too late
TTITLE11=I apologize
TTITLE12=Forever
EXTD=
EXTT0=
EXTT1=
EXTT2=
EXTT3=
EXTT4=
EXTT5=
EXTT6=
EXTT7=
EXTT8=
EXTT9=
EXTT10=
EXTT11=
EXTT12=
PLAYORDER=
